<svg width="42" height="30" viewBox="0 0 42 30" fill="none" xmlns="http://www.w3.org/2000/svg">
<path d="M40.9556 23.5208L38.6849 7.56246C38.1016 3.45829 34.581 0.416626 30.4354 0.416626H11.5614C7.41583 0.416626 3.8952 3.45829 3.3119 7.56246L1.04119 23.5208C0.582884 26.7291 3.06191 29.5833 6.29089 29.5833C7.70748 29.5833 9.04074 29.0208 10.0407 28.0208L14.7487 23.3333H27.248L31.9353 28.0208C32.9352 29.0208 34.2893 29.5833 35.6851 29.5833C38.9349 29.5833 41.4139 26.7291 40.9556 23.5208ZM18.9152 12.9166H14.7487V17.0833H12.6655V12.9166H8.4991V10.8333H12.6655V6.66663H14.7487V10.8333H18.9152V12.9166ZM27.248 10.8333C26.1023 10.8333 25.1648 9.89579 25.1648 8.74996C25.1648 7.60413 26.1023 6.66663 27.248 6.66663C28.3938 6.66663 29.3313 7.60413 29.3313 8.74996C29.3313 9.89579 28.3938 10.8333 27.248 10.8333ZM31.4145 17.0833C30.2687 17.0833 29.3313 16.1458 29.3313 15C29.3313 13.8541 30.2687 12.9166 31.4145 12.9166C32.5602 12.9166 33.4977 13.8541 33.4977 15C33.4977 16.1458 32.5602 17.0833 31.4145 17.0833Z" fill="#2A7AE4"/>
</svg>
